ffmpeg started on 2025-05-12 at 21:19:26
Report written to "D:\Convert\FFMetrics\reports\ssim_report-6.txt"
Log level: 32
Command line:
ffmpeg -hide_banner -nostdin -i "G:\\\xc0\xed\xe8\xec\xe5\\\xce\xed\xe3\xee\xe8\xed\xe3\xe8\\!_35_\xcb\xe5\xf2\xee_2024\\DreamCast-1\\\xd1\xe0\xec\xfb\xe9 \xf1\xe8\xeb\xfc\xed\xfb\xe9 \xe2\xee\xeb\xf8\xe5\xe1\xed\xe8\xea \xe0\xf0\xec\xe8\xe8 \xef\xee\xe2\xe5\xeb\xe8\xf2\xe5\xeb\xff \xe4\xe5\xec\xee\xed\xee\xe2 \xee\xea\xe0\xe7\xe0\xeb\xf1\xff \xf7\xe5\xeb\xee\xe2\xe5\xea\xee\xec\\DC_Maou_Gun_Saikyou_no_Majutsushi_wa_Ningen_datta_06_Telegram_HEVC.mkv" -i "G:\\\xc0\xed\xe8\xec\xe5\\\xce\xed\xe3\xee\xe8\xed\xe3\xe8\\!_35_\xcb\xe5\xf2\xee_2024\\DreamCast-1\\\xd1\xe0\xec\xfb\xe9 \xf1\xe8\xeb\xfc\xed\xfb\xe9 \xe2\xee\xeb\xf8\xe5\xe1\xed\xe8\xea \xe0\xf0\xec\xe8\xe8 \xef\xee\xe2\xe5\xeb\xe8\xf2\xe5\xeb\xff \xe4\xe5\xec\xee\xed\xee\xe2 \xee\xea\xe0\xe7\xe0\xeb\xf1\xff \xf7\xe5\xeb\xee\xe2\xe5\xea\xee\xec\\DC_Maou_Gun_Saikyou_no_Majutsushi_wa_Ningen_datta_06_Telegram.mp4" -lavfi "[0:v]settb=AVTB,setpts=PTS-STARTPTS,format=pix_fmts=yuv420p10,fps=24000/1001,scale=1920:1080:flags=bicubic[main];[1:v]settb=AVTB,setpts=PTS-STARTPTS,format=pix_fmts=yuv420p,fps=24000/1001,scale=1920:1080:flags=bicubic[ref];[main][ref]ssim=eof_action=endall:stats_file='D\\:/Convert/FFMetrics/logs/ssim_logfile-6.txt'" -f null -
Input #0, matroska,webm, from 'G:\Аниме\Онгоинги\!_35_Лето_2024\DreamCast-1\Самый сильный волшебник армии повелителя демонов оказался человеком\DC_Maou_Gun_Saikyou_no_Majutsushi_wa_Ningen_datta_06_Telegram_HEVC.mkv':
  Metadata:
    COMPATIBLE_BRANDS: isomiso2avc1mp41
    MAJOR_BRAND     : isom
    MINOR_VERSION   : 512
    ENCODER         : Lavf61.7.100
  Duration: 00:23:46.77, start: -0.021000, bitrate: 905 kb/s
  Stream #0:0: Video: hevc (Main 10), yuv420p10le(tv, bt709, progressive), 1920x1080 [SAR 1:1 DAR 16:9], 23.98 fps, 23.98 tbr, 1k tbn (default)
      Metadata:
        HANDLER_NAME    : VideoHandler
        VENDOR_ID       : [0][0][0][0]
        ENCODER         : Lavc61.19.100 libx265
        BPS             : 708456
        DURATION        : 00:23:46.633708333
        NUMBER_OF_FRAMES: 34205
        NUMBER_OF_BYTES : 126338390
        _STATISTICS_WRITING_APP: mkvpropedit v66.0.0 ('Josie') 64-bit
        _STATISTICS_WRITING_DATE_UTC: 2025-05-10 15:53:24
        _STATISTICS_TAGS: BPS DURATION NUMBER_OF_FRAMES NUMBER_OF_BYTES
  Stream #0:1: Audio: aac (LC), 48000 Hz, stereo, fltp (default)
      Metadata:
        HANDLER_NAME    : SoundHandler
        VENDOR_ID       : [0][0][0][0]
        ENCODER         : Lavc61.19.100 aac
        BPS             : 193138
        DURATION        : 00:23:46.773000000
        NUMBER_OF_FRAMES: 66881
        NUMBER_OF_BYTES : 34445677
        _STATISTICS_WRITING_APP: mkvpropedit v66.0.0 ('Josie') 64-bit
        _STATISTICS_WRITING_DATE_UTC: 2025-05-10 15:53:24
        _STATISTICS_TAGS: BPS DURATION NUMBER_OF_FRAMES NUMBER_OF_BYTES
Input #1, mov,mp4,m4a,3gp,3g2,mj2, from 'G:\Аниме\Онгоинги\!_35_Лето_2024\DreamCast-1\Самый сильный волшебник армии повелителя демонов оказался человеком\DC_Maou_Gun_Saikyou_no_Majutsushi_wa_Ningen_datta_06_Telegram.mp4':
  Metadata:
    major_brand     : isom
    minor_version   : 512
    compatible_brands: isomiso2avc1mp41
    encoder         : Lavf61.1.100
  Duration: 00:23:46.75, start: 0.000000, bitrate: 3426 kb/s
  Stream #1:0[0x1](und): Video: h264 (High) (avc1 / 0x31637661), yuv420p(tv, bt709, progressive), 1920x1080 [SAR 1:1 DAR 16:9], 3278 kb/s, 23.98 fps, 23.98 tbr, 24k tbn (default)
      Metadata:
        handler_name    : VideoHandler
        vendor_id       : [0][0][0][0]
        encoder         : Lavc61.3.100 h264_qsv
  Stream #1:1[0x2](und): Audio: aac (HE-AACv2) (mp4a / 0x6134706D), 48000 Hz, stereo, fltp, 144 kb/s (default)
      Metadata:
        handler_name    : SoundHandler
        vendor_id       : [0][0][0][0]
Stream mapping:
  Stream #0:0 (hevc) -> settb:default
  Stream #1:0 (h264) -> settb:default
  ssim:default -> Stream #0:0 (wrapped_avframe)
  Stream #0:1 -> #0:1 (aac (native) -> pcm_s16le (native))
Output #0, null, to 'pipe:':
  Metadata:
    COMPATIBLE_BRANDS: isomiso2avc1mp41
    MAJOR_BRAND     : isom
    MINOR_VERSION   : 512
    encoder         : Lavf61.7.100
  Stream #0:0: Video: wrapped_avframe, yuv420p10le(tv, bt709, progressive), 1920x1080 [SAR 1:1 DAR 16:9], q=2-31, 200 kb/s, 23.98 fps, 23.98 tbn
      Metadata:
        encoder         : Lavc61.19.100 wrapped_avframe
  Stream #0:1: Audio: pcm_s16le, 48000 Hz, stereo, s16, 1536 kb/s (default)
      Metadata:
        HANDLER_NAME    : SoundHandler
        VENDOR_ID       : [0][0][0][0]
        _STATISTICS_TAGS: BPS DURATION NUMBER_OF_FRAMES NUMBER_OF_BYTES
        BPS             : 193138
        DURATION        : 00:23:46.773000000
        NUMBER_OF_FRAMES: 66881
        NUMBER_OF_BYTES : 34445677
        _STATISTICS_WRITING_APP: mkvpropedit v66.0.0 ('Josie') 64-bit
        _STATISTICS_WRITING_DATE_UTC: 2025-05-10 15:53:24
        encoder         : Lavc61.19.100 pcm_s16le
frame=  156 fps=0.0 q=-0.0 size=N/A time=00:00:06.50 bitrate=N/A speed=12.9x    frame=  395 fps=386 q=-0.0 size=N/A time=00:00:16.47 bitrate=N/A speed=16.1x    frame=  642 fps=415 q=-0.0 size=N/A time=00:00:26.77 bitrate=N/A speed=17.3x    frame=  904 fps=438 q=-0.0 size=N/A time=00:00:37.70 bitrate=N/A speed=18.3x    frame= 1166 fps=452 q=-0.0 size=N/A time=00:00:48.63 bitrate=N/A speed=18.9x    frame= 1424 fps=461 q=-0.0 size=N/A time=00:00:59.39 bitrate=N/A speed=19.2x    frame= 1637 fps=454 q=-0.0 size=N/A time=00:01:08.27 bitrate=N/A speed=18.9x    frame= 1879 fps=456 q=-0.0 size=N/A time=00:01:18.36 bitrate=N/A speed=  19x    frame= 2116 fps=457 q=-0.0 size=N/A time=00:01:28.25 bitrate=N/A speed=  19x    frame= 2372 fps=460 q=-0.0 size=N/A time=00:01:38.93 bitrate=N/A speed=19.2x    frame= 2610 fps=460 q=-0.0 size=N/A time=00:01:48.85 bitrate=N/A speed=19.2x    frame= 2833 fps=458 q=-0.0 size=N/A time=00:01:58.15 bitrate=N/A speed=19.1x    frame= 3066 fps=458 q=-0.0 size=N/A time=00:02:07.87 bitrate=N/A speed=19.1x    frame= 3291 fps=456 q=-0.0 size=N/A time=00:02:17.26 bitrate=N/A speed=  19x    frame= 3511 fps=454 q=-0.0 size=N/A time=00:02:26.43 bitrate=N/A speed=18.9x    frame= 3724 fps=452 q=-0.0 size=N/A time=00:02:35.32 bitrate=N/A speed=18.9x    frame= 3965 fps=453 q=-0.0 size=N/A time=00:02:45.37 bitrate=N/A speed=18.9x    frame= 4151 fps=448 q=-0.0 size=N/A time=00:02:53.13 bitrate=N/A speed=18.7x    frame= 4350 fps=444 q=-0.0 size=N/A time=00:03:01.43 bitrate=N/A speed=18.5x    frame= 4583 fps=445 q=-0.0 size=N/A time=00:03:11.14 bitrate=N/A speed=18.6x    frame= 4819 fps=445 q=-0.0 size=N/A time=00:03:20.99 bitrate=N/A speed=18.6x    frame= 5024 fps=443 q=-0.0 size=N/A time=00:03:29.54 bitrate=N/A speed=18.5x    frame= 5224 fps=440 q=-0.0 size=N/A time=00:03:37.88 bitrate=N/A speed=18.4x    frame= 5414 fps=438 q=-0.0 size=N/A time=00:03:45.80 bitrate=N/A speed=18.3x    frame= 5638 fps=437 q=-0.0 size=N/A time=00:03:55.15 bitrate=N/A speed=18.2x    frame= 5882 fps=439 q=-0.0 size=N/A time=00:04:05.32 bitrate=N/A speed=18.3x    frame= 6069 fps=436 q=-0.0 size=N/A time=00:04:13.12 bitrate=N/A speed=18.2x    frame= 6245 fps=432 q=-0.0 size=N/A time=00:04:20.46 bitrate=N/A speed=  18x    frame= 6425 fps=429 q=-0.0 size=N/A time=00:04:27.97 bitrate=N/A speed=17.9x    frame= 6629 fps=428 q=-0.0 size=N/A time=00:04:36.48 bitrate=N/A speed=17.9x    frame= 6807 fps=426 q=-0.0 size=N/A time=00:04:43.90 bitrate=N/A speed=17.8x    frame= 7009 fps=424 q=-0.0 size=N/A time=00:04:52.33 bitrate=N/A speed=17.7x    frame= 7199 fps=423 q=-0.0 size=N/A time=00:05:00.25 bitrate=N/A speed=17.6x    frame= 7449 fps=425 q=-0.0 size=N/A time=00:05:10.68 bitrate=N/A speed=17.7x    frame= 7706 fps=427 q=-0.0 size=N/A time=00:05:21.40 bitrate=N/A speed=17.8x    frame= 7971 fps=429 q=-0.0 size=N/A time=00:05:32.45 bitrate=N/A speed=17.9x    frame= 8233 fps=431 q=-0.0 size=N/A time=00:05:43.38 bitrate=N/A speed=  18x    frame= 8496 fps=433 q=-0.0 size=N/A time=00:05:54.35 bitrate=N/A speed=18.1x    frame= 8755 fps=435 q=-0.0 size=N/A time=00:06:05.15 bitrate=N/A speed=18.2x    frame= 9006 fps=436 q=-0.0 size=N/A time=00:06:15.62 bitrate=N/A speed=18.2x    frame= 9267 fps=438 q=-0.0 size=N/A time=00:06:26.51 bitrate=N/A speed=18.3x    frame= 9470 fps=437 q=-0.0 size=N/A time=00:06:34.97 bitrate=N/A speed=18.2x    frame= 9642 fps=435 q=-0.0 size=N/A time=00:06:42.15 bitrate=N/A speed=18.1x    frame= 9869 fps=435 q=-0.0 size=N/A time=00:06:51.61 bitrate=N/A speed=18.1x    frame=10125 fps=436 q=-0.0 size=N/A time=00:07:02.29 bitrate=N/A speed=18.2x    frame=10373 fps=437 q=-0.0 size=N/A time=00:07:12.64 bitrate=N/A speed=18.2x    frame=10599 fps=437 q=-0.0 size=N/A time=00:07:22.06 bitrate=N/A speed=18.2x    frame=10826 fps=437 q=-0.0 size=N/A time=00:07:31.53 bitrate=N/A speed=18.2x    frame=11078 fps=438 q=-0.0 size=N/A time=00:07:42.04 bitrate=N/A speed=18.3x    frame=11347 fps=440 q=-0.0 size=N/A time=00:07:53.26 bitrate=N/A speed=18.3x    frame=11594 fps=441 q=-0.0 size=N/A time=00:08:03.56 bitrate=N/A speed=18.4x    frame=11840 fps=441 q=-0.0 size=N/A time=00:08:13.82 bitrate=N/A speed=18.4x    frame=12095 fps=442 q=-0.0 size=N/A time=00:08:24.46 bitrate=N/A speed=18.4x    frame=12352 fps=444 q=-0.0 size=N/A time=00:08:35.18 bitrate=N/A speed=18.5x    frame=12618 fps=445 q=-0.0 size=N/A time=00:08:46.27 bitrate=N/A speed=18.5x    frame=12879 fps=446 q=-0.0 size=N/A time=00:08:57.16 bitrate=N/A speed=18.6x    frame=13133 fps=447 q=-0.0 size=N/A time=00:09:07.75 bitrate=N/A speed=18.6x    frame=13400 fps=448 q=-0.0 size=N/A time=00:09:18.89 bitrate=N/A speed=18.7x    frame=13653 fps=449 q=-0.0 size=N/A time=00:09:29.44 bitrate=N/A speed=18.7x    frame=13888 fps=449 q=-0.0 size=N/A time=00:09:39.24 bitrate=N/A speed=18.7x    frame=14144 fps=450 q=-0.0 size=N/A time=00:09:49.92 bitrate=N/A speed=18.7x    frame=14380 fps=450 q=-0.0 size=N/A time=00:09:59.76 bitrate=N/A speed=18.8x    frame=14567 fps=448 q=-0.0 size=N/A time=00:10:07.56 bitrate=N/A speed=18.7x    frame=14805 fps=448 q=-0.0 size=N/A time=00:10:17.49 bitrate=N/A speed=18.7x    frame=15039 fps=449 q=-0.0 size=N/A time=00:10:27.25 bitrate=N/A speed=18.7x    frame=15280 fps=449 q=-0.0 size=N/A time=00:10:37.30 bitrate=N/A speed=18.7x    frame=15529 fps=449 q=-0.0 size=N/A time=00:10:47.68 bitrate=N/A speed=18.7x    frame=15781 fps=450 q=-0.0 size=N/A time=00:10:58.19 bitrate=N/A speed=18.8x    frame=16027 fps=450 q=-0.0 size=N/A time=00:11:08.45 bitrate=N/A speed=18.8x    frame=16288 fps=451 q=-0.0 size=N/A time=00:11:19.34 bitrate=N/A speed=18.8x    frame=16545 fps=452 q=-0.0 size=N/A time=00:11:30.06 bitrate=N/A speed=18.8x    frame=16807 fps=453 q=-0.0 size=N/A time=00:11:40.99 bitrate=N/A speed=18.9x    frame=17057 fps=453 q=-0.0 size=N/A time=00:11:51.41 bitrate=N/A speed=18.9x    frame=17290 fps=453 q=-0.0 size=N/A time=00:12:01.13 bitrate=N/A speed=18.9x    frame=17542 fps=454 q=-0.0 size=N/A time=00:12:11.64 bitrate=N/A speed=18.9x    frame=17803 fps=454 q=-0.0 size=N/A time=00:12:22.53 bitrate=N/A speed=18.9x    frame=18057 fps=455 q=-0.0 size=N/A time=00:12:33.12 bitrate=N/A speed=  19x    frame=18299 fps=455 q=-0.0 size=N/A time=00:12:43.22 bitrate=N/A speed=  19x    frame=18544 fps=455 q=-0.0 size=N/A time=00:12:53.43 bitrate=N/A speed=  19x    frame=18790 fps=455 q=-0.0 size=N/A time=00:13:03.69 bitrate=N/A speed=  19x    frame=19023 fps=455 q=-0.0 size=N/A time=00:13:13.41 bitrate=N/A speed=  19x    frame=19255 fps=455 q=-0.0 size=N/A time=00:13:23.09 bitrate=N/A speed=  19x    frame=19503 fps=456 q=-0.0 size=N/A time=00:13:33.43 bitrate=N/A speed=  19x    frame=19759 fps=456 q=-0.0 size=N/A time=00:13:44.11 bitrate=N/A speed=  19x    frame=20011 fps=457 q=-0.0 size=N/A time=00:13:54.62 bitrate=N/A speed=  19x    frame=20264 fps=457 q=-0.0 size=N/A time=00:14:05.17 bitrate=N/A speed=19.1x    frame=20491 fps=457 q=-0.0 size=N/A time=00:14:14.64 bitrate=N/A speed=19.1x    frame=20734 fps=457 q=-0.0 size=N/A time=00:14:24.78 bitrate=N/A speed=19.1x    frame=20960 fps=457 q=-0.0 size=N/A time=00:14:34.20 bitrate=N/A speed=  19x    frame=21150 fps=456 q=-0.0 size=N/A time=00:14:42.13 bitrate=N/A speed=  19x    frame=21367 fps=455 q=-0.0 size=N/A time=00:14:51.18 bitrate=N/A speed=  19x    frame=21565 fps=455 q=-0.0 size=N/A time=00:14:59.44 bitrate=N/A speed=  19x    frame=21783 fps=454 q=-0.0 size=N/A time=00:15:08.53 bitrate=N/A speed=18.9x    frame=22014 fps=454 q=-0.0 size=N/A time=00:15:18.16 bitrate=N/A speed=18.9x    frame=22286 fps=455 q=-0.0 size=N/A time=00:15:29.51 bitrate=N/A speed=  19x    frame=22553 fps=455 q=-0.0 size=N/A time=00:15:40.64 bitrate=N/A speed=  19x    frame=22790 fps=456 q=-0.0 size=N/A time=00:15:50.53 bitrate=N/A speed=  19x    frame=23036 fps=456 q=-0.0 size=N/A time=00:16:00.79 bitrate=N/A speed=  19x    frame=23295 fps=456 q=-0.0 size=N/A time=00:16:11.59 bitrate=N/A speed=  19x    frame=23548 fps=457 q=-0.0 size=N/A time=00:16:22.14 bitrate=N/A speed=  19x    frame=23814 fps=457 q=-0.0 size=N/A time=00:16:33.24 bitrate=N/A speed=19.1x    frame=24091 fps=458 q=-0.0 size=N/A time=00:16:44.79 bitrate=N/A speed=19.1x    frame=24331 fps=458 q=-0.0 size=N/A time=00:16:54.80 bitrate=N/A speed=19.1x    frame=24602 fps=459 q=-0.0 size=N/A time=00:17:06.10 bitrate=N/A speed=19.1x    frame=24866 fps=459 q=-0.0 size=N/A time=00:17:17.11 bitrate=N/A speed=19.2x    frame=25118 fps=459 q=-0.0 size=N/A time=00:17:27.62 bitrate=N/A speed=19.2x    frame=25365 fps=460 q=-0.0 size=N/A time=00:17:37.93 bitrate=N/A speed=19.2x    frame=25593 fps=460 q=-0.0 size=N/A time=00:17:47.44 bitrate=N/A speed=19.2x    frame=25834 fps=460 q=-0.0 size=N/A time=00:17:57.49 bitrate=N/A speed=19.2x    frame=26097 fps=460 q=-0.0 size=N/A time=00:18:08.46 bitrate=N/A speed=19.2x    frame=26329 fps=460 q=-0.0 size=N/A time=00:18:18.13 bitrate=N/A speed=19.2x    frame=26587 fps=460 q=-0.0 size=N/A time=00:18:28.89 bitrate=N/A speed=19.2x    frame=26842 fps=461 q=-0.0 size=N/A time=00:18:39.53 bitrate=N/A speed=19.2x    frame=27061 fps=460 q=-0.0 size=N/A time=00:18:48.66 bitrate=N/A speed=19.2x    frame=27297 fps=460 q=-0.0 size=N/A time=00:18:58.51 bitrate=N/A speed=19.2x    frame=27558 fps=461 q=-0.0 size=N/A time=00:19:09.39 bitrate=N/A speed=19.2x    frame=27812 fps=461 q=-0.0 size=N/A time=00:19:19.99 bitrate=N/A speed=19.2x    frame=28074 fps=461 q=-0.0 size=N/A time=00:19:30.91 bitrate=N/A speed=19.2x    frame=28326 fps=462 q=-0.0 size=N/A time=00:19:41.43 bitrate=N/A speed=19.3x    frame=28590 fps=462 q=-0.0 size=N/A time=00:19:52.44 bitrate=N/A speed=19.3x    frame=28824 fps=462 q=-0.0 size=N/A time=00:20:02.20 bitrate=N/A speed=19.3x    frame=29086 fps=462 q=-0.0 size=N/A time=00:20:13.12 bitrate=N/A speed=19.3x    frame=29352 fps=463 q=-0.0 size=N/A time=00:20:24.22 bitrate=N/A speed=19.3x    frame=29630 fps=463 q=-0.0 size=N/A time=00:20:35.81 bitrate=N/A speed=19.3x    frame=29885 fps=464 q=-0.0 size=N/A time=00:20:46.45 bitrate=N/A speed=19.3x    frame=30129 fps=464 q=-0.0 size=N/A time=00:20:56.63 bitrate=N/A speed=19.3x    frame=30391 fps=464 q=-0.0 size=N/A time=00:21:07.55 bitrate=N/A speed=19.3x    frame=30637 fps=464 q=-0.0 size=N/A time=00:21:17.81 bitrate=N/A speed=19.4x    frame=30879 fps=464 q=-0.0 size=N/A time=00:21:27.91 bitrate=N/A speed=19.4x    frame=31131 fps=464 q=-0.0 size=N/A time=00:21:38.42 bitrate=N/A speed=19.4x    frame=31413 fps=465 q=-0.0 size=N/A time=00:21:50.18 bitrate=N/A speed=19.4x    frame=31654 fps=465 q=-0.0 size=N/A time=00:22:00.23 bitrate=N/A speed=19.4x    frame=31841 fps=464 q=-0.0 size=N/A time=00:22:08.03 bitrate=N/A speed=19.4x    frame=32047 fps=464 q=-0.0 size=N/A time=00:22:16.62 bitrate=N/A speed=19.3x    frame=32238 fps=463 q=-0.0 size=N/A time=00:22:24.59 bitrate=N/A speed=19.3x    frame=32424 fps=462 q=-0.0 size=N/A time=00:22:32.35 bitrate=N/A speed=19.3x    frame=32607 fps=461 q=-0.0 size=N/A time=00:22:39.98 bitrate=N/A speed=19.2x    frame=32793 fps=461 q=-0.0 size=N/A time=00:22:47.74 bitrate=N/A speed=19.2x    frame=32977 fps=460 q=-0.0 size=N/A time=00:22:55.41 bitrate=N/A speed=19.2x    frame=33162 fps=459 q=-0.0 size=N/A time=00:23:03.13 bitrate=N/A speed=19.1x    frame=33345 fps=458 q=-0.0 size=N/A time=00:23:10.76 bitrate=N/A speed=19.1x    frame=33537 fps=458 q=-0.0 size=N/A time=00:23:18.77 bitrate=N/A speed=19.1x    frame=33730 fps=457 q=-0.0 size=N/A time=00:23:26.82 bitrate=N/A speed=19.1x    frame=33932 fps=457 q=-0.0 size=N/A time=00:23:35.24 bitrate=N/A speed=  19x    frame=34139 fps=456 q=-0.0 size=N/A time=00:23:43.88 bitrate=N/A speed=  19x    [Parsed_ssim_10 @ 000001c89acfc6c0] SSIM Y:0.995152 (23.144249) U:0.993016 (21.558768) V:0.993284 (21.728650) All:0.994484 (22.584120)
[out#0/null @ 000001c88dc3f5c0] video:14697KiB audio:267524KiB subtitle:0KiB other streams:0KiB global headers:0KiB muxing overhead: unknown
frame=34205 fps=456 q=-0.0 Lsize=N/A time=00:23:46.63 bitrate=N/A speed=  19x    
